<svg height="700pt" preserveAspectRatio="xMidYMid meet" viewBox="0 0 700 700" width="700pt" xmlns="http://www.w3.org/2000/svg"><path d="m4745 6683c-59-20-95-53-222-201-65-75-120-139-123-142s-30-34-60-70-57-67-60-70-114-131-245-285c-132-154-247-287-255-295-8-9-35-40-60-70-25-29-54-64-65-76s-166-192-345-400-339-394-355-412l-30-34-60 57c-33 32-145 139-249 239-103 99-211 203-240 230-28 27-138 133-245 235-325 313-345 330-391 352-63 30-151 29-216-2-39-19-1014-740-1113-824-43-36-61-58-84-104l-22-46v-1260c0-1429-7-1313 83-1397 79-73 1094-830 1142-851 61-27 151-26 210 2 47 22 71 44 386 347 104 100 207 199 230 220 46 44 399 382 479 459 100 97 80 98 176-12 118-137 270-313 294-342 11-13 25-29 30-35 6-6 53-60 105-121 52-60 97-112 100-115s102-117 220-255c118-137 217-252 220-255s30-34 60-70 57-67 60-70 114-131 245-285c313-365 336-389 410-410 68-20 137-14 199 17 83 41 1645 1089 1675 1123 17 20 39 52 49 73 16 35 17 153 20 1952 3 2169 10 1984-78 2070-25 25-111 88-190 141-1300 866-1474 979-1524 994-61 18-106 17-161-2zm353-3660-3-476-56 54c-31 30-141 135-245 234-103 99-208 200-234 225-459 440-470 451-441 462 5 2 96 86 202 188 105 102 211 203 234 225 71 69 438 420 490 470l50 47 3-476c1-262 1-690 0-953zm-3633 1047c26-30 57-66 69-80 52-62 142-165 147-170 3-3 59-68 124-145 66-77 125-146 132-153s13-16 13-20c0-6-91-114-199-237-14-16-62-73-106-125s-85-99-91-105c-6-5-37-41-70-80-32-38-65-76-71-83-11-11-13 115-13 629 0 368 4 639 9 634 5-6 30-35 56-65z" transform="matrix(.1 0 0 -.1 0 700)"/></svg>