<svg fill="none" height="193" viewBox="0 0 193 193" width="193" xmlns="http://www.w3.org/2000/svg" xmlns:xlink="http://www.w3.org/1999/xlink"><filter id="a" color-interpolation-filters="sRGB" filterUnits="userSpaceOnUse" height="161.087" width="180.604" x="6.03194" y="4.38577"><feFlood flood-opacity="0" result="BackgroundImageFix"/><feColorMatrix in="SourceAlpha" result="hardAlpha" type="matrix" values="0 0 0 0 0 0 0 0 0 0 0 0 0 0 0 0 0 0 127 0"/><feOffset dy=".246095"/><feGaussianBlur stdDeviation=".246095"/><feColorMatrix type="matrix" values="0 0 0 0 0 0 0 0 0 0 0 0 0 0 0 0 0 0 0.24 0"/><feBlend in2="BackgroundImageFix" mode="normal" result="effect1_dropShadow"/><feColorMatrix in="SourceAlpha" result="hardAlpha" type="matrix" values="0 0 0 0 0 0 0 0 0 0 0 0 0 0 0 0 0 0 127 0"/><feOffset dy="1.29524"/><feGaussianBlur stdDeviation="2.59048"/><feColorMatrix type="matrix" values="0 0 0 0 0 0 0 0 0 0 0 0 0 0 0 0 0 0 0.22 0"/><feBlend in2="effect1_dropShadow" mode="normal" result="effect2_dropShadow"/><feBlend in="SourceGraphic" in2="effect2_dropShadow" mode="normal" result="shape"/></filter><filter id="b" color-interpolation-filters="sRGB" filterUnits="userSpaceOnUse" height="161.085" width="180.604" x="6.03194" y="30.1181"><feFlood flood-opacity="0" result="BackgroundImageFix"/><feColorMatrix in="SourceAlpha" result="hardAlpha" type="matrix" values="0 0 0 0 0 0 0 0 0 0 0 0 0 0 0 0 0 0 127 0"/><feOffset dy=".246095"/><feGaussianBlur stdDeviation=".246095"/><feColorMatrix type="matrix" values="0 0 0 0 0 0 0 0 0 0 0 0 0 0 0 0 0 0 0.24 0"/><feBlend in2="BackgroundImageFix" mode="normal" result="effect1_dropShadow"/><feColorMatrix in="SourceAlpha" result="hardAlpha" type="matrix" values="0 0 0 0 0 0 0 0 0 0 0 0 0 0 0 0 0 0 127 0"/><feOffset dy="1.29524"/><feGaussianBlur stdDeviation="2.59048"/><feColorMatrix type="matrix" values="0 0 0 0 0 0 0 0 0 0 0 0 0 0 0 0 0 0 0.22 0"/><feBlend in2="effect1_dropShadow" mode="normal" result="effect2_dropShadow"/><feBlend in="SourceGraphic" in2="effect2_dropShadow" mode="normal" result="shape"/></filter><filter id="c" color-interpolation-filters="sRGB" filterUnits="userSpaceOnUse" height="205.117" width="78.583" x="121.688" y="-6.05857"><feFlood flood-opacity="0" result="BackgroundImageFix"/><feColorMatrix in="SourceAlpha" result="hardAlpha" type="matrix" values="0 0 0 0 0 0 0 0 0 0 0 0 0 0 0 0 0 0 127 0"/><feOffset/><feGaussianBlur stdDeviation=".129524"/><feColorMatrix type="matrix" values="0 0 0 0 0 0 0 0 0 0 0 0 0 0 0 0 0 0 0.24 0"/><feBlend in2="BackgroundImageFix" mode="normal" result="effect1_dropShadow"/><feColorMatrix in="SourceAlpha" result="hardAlpha" type="matrix" values="0 0 0 0 0 0 0 0 0 0 0 0 0 0 0 0 0 0 127 0"/><feOffset/><feGaussianBlur stdDeviation="7.77143"/><feColorMatrix type="matrix" values="0 0 0 0 0 0 0 0 0 0 0 0 0 0 0 0 0 0 0.3 0"/><feBlend in2="effect1_dropShadow" mode="normal" result="effect2_dropShadow"/><feBlend in="SourceGraphic" in2="effect2_dropShadow" mode="normal" result="shape"/></filter><linearGradient id="d" gradientUnits="userSpaceOnUse" x1="151.642" x2="20.6141" y1="8.27149" y2="140.148"><stop offset="0" stop-color="#7252aa"/><stop offset="1" stop-color="#7252aa"/></linearGradient><linearGradient id="e" gradientUnits="userSpaceOnUse" x1="24.8145" x2="147.966" y1="40.4371" y2="178.293"><stop offset="0" stop-color="#ae7fe2"/><stop offset="1" stop-color="#9a70d4"/></linearGradient><linearGradient id="f" gradientUnits="userSpaceOnUse" x1="160.457" x2="160.457" y1="5.93579" y2="183.367"><stop offset="0" stop-color="#d59dff"/><stop offset="1" stop-color="#c18ef1"/></linearGradient><clipPath id="g"><path d="m8.27148 8.27148h176.457v176.457h-176.457z"/></clipPath><clipPath id="h"><path d="m8.27148 8.27148h176.457v176.457h-176.457z"/></clipPath><mask id="i" height="177" maskUnits="userSpaceOnUse" width="177" x="8" y="8"><path d="m40.6211 157.524-29.4077-22.057c-.9169-.681-1.66096-1.568-2.17198-2.59s-.77474-2.149-.76987-3.291v-66.1716c-.00487-1.1423.25885-2.2697.76987-3.2912.51102-1.0216 1.25508-1.9087 2.17198-2.5898l29.4077-22.0572c-.79.7418-1.387 1.6652-1.7392 2.6901s-.4489 2.1202-.2818 3.1909v110.2858c-.1671 1.071-.0704 2.166.2818 3.191s.9492 1.948 1.7392 2.69z" fill="#fff"/><path d="m181.456 38.8951c-1.212-.7959-2.631-1.2178-4.081-1.2131-.939-.0076-1.871.1702-2.741.5232-.871.3529-1.663.8741-2.332 1.5336l-.513.5156-58.672 56.2457-32.4622 31.1369-30.0336 28.784-.5155.516c-.6682.66-1.4604 1.182-2.331 1.536-.8707.353-1.8026.531-2.7422.523-1.5906-.003-3.1377-.519-4.4114-1.472l-29.4077-22.057c1.4941 1.122 3.3597 1.633 5.2171 1.428s3.5668-1.11 4.7803-2.531l32.6446-37.8998 26.7994-31.1005 46.9462-54.5198c.681-.8074 1.531-1.45598 2.49-1.90034s2.003-.67373 3.06-.67204c1.45-.00468 2.869.41722 4.08 1.21315z" fill="#fff"/><path d="m181.456 154.105-44.114 29.41c-1.501.98-3.305 1.386-5.081 1.143-1.775-.243-3.404-1.119-4.586-2.466l-47.0202-54.555-26.7994-31.1728-32.6446-37.8667c-1.2243-1.4066-2.9353-2.2981-4.7897-2.4955-1.8543-.1974-3.7147.314-5.2077 1.4314l29.4077-22.0572c1.2737-.9528 2.8208-1.4692 4.4114-1.4724.9396-.0079 1.8715.17 2.7422.5234.8706.3535 1.6628.8756 2.331 1.5362l.5155.5156 30.0336 28.7847 32.4622 31.1364 58.672 56.2459.513.515c.669.66 1.461 1.181 2.332 1.534.87.353 1.802.531 2.741.523 1.45.005 2.869-.417 4.081-1.213z" fill="#fff"/><path d="m184.729 45.0325v102.9355c.001 1.213-.297 2.408-.868 3.478-.571 1.071-1.397 1.984-2.405 2.659l-44.114 29.41c1.008-.675 1.834-1.589 2.405-2.66.57-1.071.868-2.266.867-3.48v-161.7502c-.016-1.2226-.333-2.4223-.923-3.4932s-1.435-1.98-2.46-2.64693l44.225 29.41043c1.005.6777 1.83 1.5915 2.4 2.6614.571 1.07.87 2.2634.873 3.476z" fill="#fff"/></mask><g clip-path="url(#g)"><g clip-path="url(#h)"><g mask="url(#i)"><path d="m40.6211 157.524-29.4077-22.057c-.9169-.681-1.66096-1.569-2.17198-2.59-.51102-1.022-.77474-2.149-.76987-3.291v-66.1717c-.00487-1.1423.25885-2.2697.76987-3.2912.51102-1.0216 1.25508-1.9087 2.17198-2.5898l29.4077-22.0572c-.79.7418-1.387 1.6652-1.7392 2.6901s-.4489 2.1202-.2818 3.1909v110.2859c-.1671 1.071-.0704 2.166.2818 3.191s.9492 1.948 1.7392 2.69z" fill="#5e438f"/><g filter="url(#a)"><path d="m181.455 38.8951c-1.211-.7959-2.63-1.2178-4.08-1.2131-.939-.0076-1.871.1702-2.742.5232-.87.3529-1.662.8741-2.331 1.5336l-.513.5156-31.25 29.9619-27.422 26.2838-32.4627 31.1369-30.0336 28.784-.5155.516c-.6682.66-1.4604 1.182-2.331 1.536-.8707.353-1.8026.531-2.7422.523-1.5906-.003-3.1377-.519-4.4114-1.472l-29.4077-22.057c1.494 1.122 3.3597 1.633 5.2171 1.428s3.5668-1.11 4.7803-2.531l16.4712-19.115 16.1734-18.7847 26.7994-31.1006 46.9457-54.5198c.682-.8074 1.532-1.45598 2.491-1.90034.958-.44436 2.003-.67373 3.059-.67204 1.45-.00468 2.869.41722 4.081 1.21315z" fill="url(#d)"/></g><g filter="url(#b)"><path d="m181.455 154.105-44.114 29.411c-1.5.98-3.304 1.385-5.08 1.142s-3.404-1.118-4.586-2.466l-47.0207-54.555-26.7994-31.1726-16.1734-18.7486-16.4712-19.118c-1.2243-1.4067-2.9354-2.2981-4.7897-2.4956-1.8543-.1974-3.7147.314-5.2077 1.4313l29.4077-22.0571c1.2737-.9528 2.8208-1.4692 4.4114-1.4723.9396-.008 1.8715.1699 2.7422.5234.8706.3534 1.6628.8755 2.331 1.5362l.5155.5155 30.0336 28.7846 32.4627 31.1364 27.461 26.3228 31.211 29.923.513.516c.669.659 1.461 1.18 2.331 1.533.871.353 1.803.531 2.742.523 1.45.005 2.869-.417 4.08-1.213z" fill="url(#e)"/></g><g filter="url(#c)"><path d="m184.729 45.0321v102.9349c.001 1.214-.297 2.408-.868 3.479-.571 1.07-1.397 1.984-2.405 2.659l-44.115 29.41c1.009-.675 1.835-1.589 2.405-2.66.571-1.071.869-2.266.868-3.48v-161.7506c-.016-1.2225-.333-2.4223-.923-3.4932s-1.435-1.98-2.46-2.64692l44.225 29.41042c1.005.6777 1.829 1.5915 2.4 2.6615.57 1.0699.87 2.2634.873 3.4759z" fill="url(#f)"/></g></g></g></g></svg>